<?xml version="1.0" encoding="UTF-8" standalone="no"?>
<svg xmlns:dc="http://purl.org/dc/elements/1.1/" xmlns:cc="http://creativecommons.org/ns#" xmlns:rdf="http://www.w3.org/1999/02/22-rdf-syntax-ns#" xmlns:svg="http://www.w3.org/2000/svg" xmlns="http://www.w3.org/2000/svg" xmlns:xlink="http://www.w3.org/1999/xlink" xmlns:sodipodi="http://sodipodi.sourceforge.net/DTD/sodipodi-0.dtd" xmlns:inkscape="http://www.inkscape.org/namespaces/inkscape" height="480" width="800" version="1.1" id="svg3095" inkscape:version="0.92.3 (2405546, 2018-03-11)" sodipodi:docname="weather-script-preprocess_temps.svg">
    <rect width="800" height="480" id="rect3855" fill="white" />

    <g transform="scale(1.2) translate(105 165)" id="currentweather">
        <use id="currentweathericon" href="icons/ICON_ONE.svg" />
    </g>

    <text id="alertmessage" x="10" y="35" font-size="30px" style="font-weight:bold;font-size:30px;line-height:0%;font-family:'Nimbus Mono PS';text-anchor:beginning">ALERT_MESSAGE</text>
    <text id="temphighlow" x="185" y="360" font-size="38px" style="font-size:34px;line-height:0%;font-family:'Nimbus Sans L';text-anchor:middle">HIGH_ONE/LOW_ONE</text>
    <text id="weatherdesc1" x="185" y="390" font-size="38px" style="font-size:28px;line-height:0%;font-family:'Nimbus Sans L';text-anchor:middle">WEATHER_DESC_1</text>
    <text id="weaetherdesc2" x="185" y="415" font-size="38px" style="font-size:28px;line-height:0%;font-family:'Nimbus Sans L';text-anchor:middle">WEATHER_DESC_2</text>
    <text id="rain" x="185" y="440" font-size="38px" style="font-size:28px;line-height:0%;font-family:'Nimbus Sans L';text-anchor:middle">TODAYS_RAIN</text>
    <!--<path id="divider" fill="#000000" stroke="none" d="M 301 376.894287 L 301 464.825409 L 304.084656 464.825409 L 304.084656 169 L 301 169 Z"/>-->
    <path d="m 325,480 h 3 v -450 h -3 z" id="divider" inkscape:connector-curvature="0" />
    <path d="m 0,145 h 800 v -3 h -800 h 3 z" id="divider" inkscape:connector-curvature="0" />
    <!--<path d="m 0,50 h 800 v -3 h -800 h 3 z" id="divider" inkscape:connector-curvature="0" />-->
    <path d="m 525,145 h 3 v -115 h -3 z" id="divider" inkscape:connector-curvature="0" />


    <g id="Vorhersage-Morgen">
        <text id="PREDICTION1DAY" xml:space="preserve" x="340" y="180" font-family="Nimbus Sans L" font-size="24" fill="#000000">PREDICTION1_DAY</text>
        <g id="prediciton1_weather"><use transform="scale(0.5 0.5)" x="680" y="380" id="prediciton1_weathericon" href="icons/PREDICTION1_ICON.svg" /></g>
        <text id="PREDICTION1MAXPREDICTION1MIN" xml:space="preserve" x="410" y="210" font-family="Nimbus Sans L" font-size="24" fill="#000000">PREDICTION1_MAX/PREDICTION1_MIN</text>
        <text id="PREDICTION1DESCRIPTION" xml:space="preserve" x="410" y="240" font-family="Nimbus Sans L" font-size="24" fill="#000000">PREDICTION1_DESCRIPTION PREDICTION1_RAIN</text>
    </g>
    <g id="Vorhersage-Morgen">
        <text id="PREDICTION2DAY" xml:space="preserve" x="340" y="290" font-family="Nimbus Sans L" font-size="24" fill="#000000">PREDICTION2_DAY</text>
        <g id="prediciton2_weather"><use transform="scale(0.5 0.5)" x="680" y="600" id="prediciton2_weathericon" href="icons/PREDICTION2_ICON.svg" /></g>
        <text id="PREDICTION2MAXPREDICTION2MIN" xml:space="preserve" x="410" y="320" font-family="Nimbus Sans L" font-size="24" fill="#000000">PREDICTION2_MAX/PREDICTION2_MIN</text>
        <text id="PREDICTION2DESCRIPTION" xml:space="preserve" x="410" y="350" font-family="Nimbus Sans L" font-size="24" fill="#000000">PREDICTION2_DESCRIPTION PREDICTION2_RAIN</text>
    </g>
    <g id="Vorhersage-Morgen">
        <text id="PREDICTION3DAY" xml:space="preserve" x="340" y="400" font-family="Nimbus Sans L" font-size="24" fill="#000000">PREDICTION3_DAY</text>
        <g id="prediciton3_weather"><use transform="scale(0.5 0.5)" x="680" y="820" id="prediciton3_weathericon" href="icons/PREDICTION3_ICON.svg" /></g>
        <text id="PREDICTION3MAXPREDICTION3MIN" xml:space="preserve" x="410" y="430" font-family="Nimbus Sans L" font-size="24" fill="#000000">PREDICTION3_MAX/PREDICTION3_MIN</text>
        <text id="PREDICTION3DESCRIPTION" xml:space="preserve" x="410" y="460" font-family="Nimbus Sans L" font-size="24" fill="#000000">PREDICTION3_DESCRIPTION PREDICTION3_RAIN</text>
    </g>

    <!--<g id="thermometer-half">
        <path id="Pfad" fill="#000000" stroke="none" d="M 50.142857 131.107147 C 50.140488 135.628998 46.745178 139.429108 42.252136 139.93869 C 37.759087 140.448242 33.598999 137.504974 32.584049 133.098511 C 31.569099 128.692047 34.022472 124.225494 38.285713 122.718201 L 38.285713 95.535706 C 38.285713 93.89859 39.612869 92.571411 41.25 92.571411 C 42.887127 92.571411 44.214283 93.89859 44.214283 95.535706 L 44.214283 122.718201 C 47.769009 123.974976 50.144833 127.336792 50.142857 131.107147 Z"/>
        <path id="path1" fill="#000000" stroke="none" d="M 26.428574 71.821442 C 26.428574 63.635773 33.06435 57 41.25 57 C 49.435646 57 56.071426 63.635773 56.071426 71.821442 L 56.071426 116.582123 C 64.053139 124.728424 63.964279 137.789459 55.872471 145.826385 C 47.780663 153.863342 34.719341 153.863342 26.627531 145.826385 C 18.535721 137.789459 18.446865 124.728424 26.428574 116.582123 L 26.428574 71.821442 Z M 41.25 62.928558 C 36.338612 62.928558 32.357143 66.910034 32.357143 71.821442 L 32.357143 119.172913 L 31.367073 120.062195 C 26.786163 124.158752 25.208458 130.657318 27.401031 136.398315 C 29.593603 142.139313 35.101593 145.931763 41.247036 145.931763 C 47.392479 145.931763 52.900467 142.139313 55.093037 136.398315 C 57.285614 130.657318 55.707909 124.158752 51.126999 120.062195 L 50.142857 119.172913 L 50.142857 71.821442 C 50.142857 66.910034 46.161388 62.928558 41.25 62.928558 Z"/>
    </g>-->
    
    <text id="TEMPOUTDOOR" xml:space="preserve" x="70" y="90" font-family="Nimbus Sans L" font-size="44" font-weight="700" fill="#000000">TEMP_OUTDOOR</text>
    <text id="TEMPINDOORUP" xml:space="preserve" x="340" y="90" font-family="Nimbus Sans L" font-size="44" font-weight="700" fill="#000000">TEMP_INDOOR_UP</text>
    <text id="TEMPINDOORDOWN" xml:space="preserve" x="540" y="90" font-family="Nimbus Sans L" font-size="44" font-weight="700" fill="#000000">TEMP_INDOOR_DOWN</text>

    <text id="Aussen" xml:space="preserve" x="70" y="120" font-family="Nimbus Sans L" font-size="23" fill="#000000">Außen</text>
    <text id="InnenOben" xml:space="preserve" x="340" y="120" font-family="Nimbus Sans L" font-size="23" fill="#000000">Innen/Oben</text>
    <text id="InnenUnten" xml:space="preserve" x="540" y="120" font-family="Nimbus Sans L" font-size="23" fill="#000000">Innen/Unten</text>
</svg>
